<svg xmlns="http://www.w3.org/2000/svg" width="800" height="812" viewBox="0 0 800 812" font-family="-apple-system,BlinkMacSystemFont,Segoe UI,Helvetica,Arial,sans-serif" font-size="14">
<rect width="800" height="812" fill="#1a1a19"/>
<text x="190" y="28" fill="#f2f1ea" font-size="17" font-weight="600">Lint time, seconds (lower is better)</text>
<rect x="190" y="40" width="12" height="12" fill="#3987e5" rx="2"/><text x="208" y="51" fill="#c3c2b7">phpcs WordPress-Extra</text>
<rect x="390" y="40" width="12" height="12" fill="#d95926" rx="2"/><text x="408" y="51" fill="#c3c2b7">mago + mago-wordpress</text>
<line x1="190.0" y1="64" x2="190.0" y2="768" stroke="#33332f" stroke-width="1"/>
<text x="190.0" y="786" fill="#c3c2b7" font-size="12" text-anchor="middle">0</text>
<line x1="325.0" y1="64" x2="325.0" y2="768" stroke="#33332f" stroke-width="1"/>
<text x="325.0" y="786" fill="#c3c2b7" font-size="12" text-anchor="middle">10</text>
<line x1="460.0" y1="64" x2="460.0" y2="768" stroke="#33332f" stroke-width="1"/>
<text x="460.0" y="786" fill="#c3c2b7" font-size="12" text-anchor="middle">20</text>
<line x1="595.0" y1="64" x2="595.0" y2="768" stroke="#33332f" stroke-width="1"/>
<text x="595.0" y="786" fill="#c3c2b7" font-size="12" text-anchor="middle">30</text>
<line x1="730.0" y1="64" x2="730.0" y2="768" stroke="#33332f" stroke-width="1"/>
<text x="730.0" y="786" fill="#c3c2b7" font-size="12" text-anchor="middle">40</text>
<text x="178" y="101" fill="#f2f1ea" text-anchor="end" font-weight="600">WooCommerce</text>
<path d="M190,77 h450.9 a4,4 0 0 1 4,4 v10 a4,4 0 0 1 -4,4 h-450.9 z" fill="#3987e5"/>
<text x="652.9" y="91" fill="#f2f1ea">33.40 s</text>
<path d="M190,97 h44.82 a4,4 0 0 1 4,4 v10 a4,4 0 0 1 -4,4 h-44.82 z" fill="#d95926"/>
<text x="246.82" y="111" fill="#f2f1ea">3.32 s  <tspan fill="#c3c2b7">(10× faster)</tspan></text>
<text x="178" y="165" fill="#f2f1ea" text-anchor="end" font-weight="600">WordPress core</text>
<path d="M190,141 h349.515 a4,4 0 0 1 4,4 v10 a4,4 0 0 1 -4,4 h-349.515 z" fill="#3987e5"/>
<text x="551.515" y="155" fill="#f2f1ea">25.89 s</text>
<path d="M190,161 h51.03 a4,4 0 0 1 4,4 v10 a4,4 0 0 1 -4,4 h-51.03 z" fill="#d95926"/>
<text x="253.03" y="175" fill="#f2f1ea">3.78 s  <tspan fill="#c3c2b7">(7× faster)</tspan></text>
<text x="178" y="229" fill="#f2f1ea" text-anchor="end" font-weight="600">Elementor</text>
<path d="M190,205 h175.77 a4,4 0 0 1 4,4 v10 a4,4 0 0 1 -4,4 h-175.77 z" fill="#3987e5"/>
<text x="377.77" y="219" fill="#f2f1ea">13.02 s</text>
<path d="M190,225 h18.225 a4,4 0 0 1 4,4 v10 a4,4 0 0 1 -4,4 h-18.225 z" fill="#d95926"/>
<text x="220.225" y="239" fill="#f2f1ea">1.35 s  <tspan fill="#c3c2b7">(10× faster)</tspan></text>
<text x="178" y="293" fill="#f2f1ea" text-anchor="end" font-weight="600">Google Site Kit</text>
<path d="M190,269 h214.92 a4,4 0 0 1 4,4 v10 a4,4 0 0 1 -4,4 h-214.92 z" fill="#3987e5"/>
<text x="416.92" y="283" fill="#f2f1ea">15.92 s</text>
<path d="M190,289 h17.955 a4,4 0 0 1 4,4 v10 a4,4 0 0 1 -4,4 h-17.955 z" fill="#d95926"/>
<text x="219.955" y="303" fill="#f2f1ea">1.33 s  <tspan fill="#c3c2b7">(12× faster)</tspan></text>
<text x="178" y="357" fill="#f2f1ea" text-anchor="end" font-weight="600">Yoast SEO</text>
<path d="M190,333 h166.32 a4,4 0 0 1 4,4 v10 a4,4 0 0 1 -4,4 h-166.32 z" fill="#3987e5"/>
<text x="368.32" y="347" fill="#f2f1ea">12.32 s</text>
<path d="M190,353 h16.875 a4,4 0 0 1 4,4 v10 a4,4 0 0 1 -4,4 h-16.875 z" fill="#d95926"/>
<text x="218.875" y="367" fill="#f2f1ea">1.25 s  <tspan fill="#c3c2b7">(10× faster)</tspan></text>
<text x="178" y="421" fill="#f2f1ea" text-anchor="end" font-weight="600">WPForms Lite</text>
<path d="M190,397 h149.985 a4,4 0 0 1 4,4 v10 a4,4 0 0 1 -4,4 h-149.985 z" fill="#3987e5"/>
<text x="351.985" y="411" fill="#f2f1ea">11.11 s</text>
<path d="M190,417 h22.68 a4,4 0 0 1 4,4 v10 a4,4 0 0 1 -4,4 h-22.68 z" fill="#d95926"/>
<text x="224.68" y="431" fill="#f2f1ea">1.68 s  <tspan fill="#c3c2b7">(7× faster)</tspan></text>
<text x="178" y="485" fill="#f2f1ea" text-anchor="end" font-weight="600">LiteSpeed Cache</text>
<path d="M190,461 h34.155 a4,4 0 0 1 4,4 v10 a4,4 0 0 1 -4,4 h-34.155 z" fill="#3987e5"/>
<text x="236.155" y="475" fill="#f2f1ea">2.53 s</text>
<path d="M190,481 h8.37 a4,4 0 0 1 4,4 v10 a4,4 0 0 1 -4,4 h-8.37 z" fill="#d95926"/>
<text x="210.37" y="495" fill="#f2f1ea">0.62 s  <tspan fill="#c3c2b7">(4× faster)</tspan></text>
<text x="178" y="549" fill="#f2f1ea" text-anchor="end" font-weight="600">WP Mail SMTP</text>
<path d="M190,525 h31.725 a4,4 0 0 1 4,4 v10 a4,4 0 0 1 -4,4 h-31.725 z" fill="#3987e5"/>
<text x="233.725" y="539" fill="#f2f1ea">2.35 s</text>
<path d="M190,545 h7.56 a4,4 0 0 1 4,4 v10 a4,4 0 0 1 -4,4 h-7.56 z" fill="#d95926"/>
<text x="209.56" y="559" fill="#f2f1ea">0.56 s  <tspan fill="#c3c2b7">(4× faster)</tspan></text>
<text x="178" y="613" fill="#f2f1ea" text-anchor="end" font-weight="600">All-in-One WP Migration</text>
<path d="M190,589 h22.545 a4,4 0 0 1 4,4 v10 a4,4 0 0 1 -4,4 h-22.545 z" fill="#3987e5"/>
<text x="224.545" y="603" fill="#f2f1ea">1.67 s</text>
<path d="M190,609 h4.725 a4,4 0 0 1 4,4 v10 a4,4 0 0 1 -4,4 h-4.725 z" fill="#d95926"/>
<text x="206.725" y="623" fill="#f2f1ea">0.35 s  <tspan fill="#c3c2b7">(5× faster)</tspan></text>
<text x="178" y="677" fill="#f2f1ea" text-anchor="end" font-weight="600">Contact Form 7</text>
<path d="M190,653 h18.9 a4,4 0 0 1 4,4 v10 a4,4 0 0 1 -4,4 h-18.9 z" fill="#3987e5"/>
<text x="220.9" y="667" fill="#f2f1ea">1.40 s</text>
<path d="M190,673 h4.59 a4,4 0 0 1 4,4 v10 a4,4 0 0 1 -4,4 h-4.59 z" fill="#d95926"/>
<text x="206.59" y="687" fill="#f2f1ea">0.34 s  <tspan fill="#c3c2b7">(4× faster)</tspan></text>
<text x="178" y="741" fill="#f2f1ea" text-anchor="end" font-weight="600">Akismet</text>
<path d="M190,717 h7.02 a4,4 0 0 1 4,4 v10 a4,4 0 0 1 -4,4 h-7.02 z" fill="#3987e5"/>
<text x="209.02" y="731" fill="#f2f1ea">0.52 s</text>
<path d="M190,737 h3.51 a4,4 0 0 1 4,4 v10 a4,4 0 0 1 -4,4 h-3.51 z" fill="#d95926"/>
<text x="205.51" y="751" fill="#f2f1ea">0.26 s  <tspan fill="#c3c2b7">(2× faster)</tspan></text>
<line x1="190" y1="64" x2="190" y2="768" stroke="#c3c2b7" stroke-width="1"/>
</svg>
